<?xml version="1.0" encoding="utf-8"?>
<!-- Generator: Adobe Illustrator 16.0.0, SVG Export Plug-In . SVG Version: 6.00 Build 0)  -->
<!DOCTYPE svg PUBLIC "-//W3C//DTD SVG 1.1//EN" "http://www.w3.org/Graphics/SVG/1.1/DTD/svg11.dtd">
<svg version="1.1" id="Layer_1" xmlns="http://www.w3.org/2000/svg" xmlns:xlink="http://www.w3.org/1999/xlink" x="0px" y="0px"
	 width="595.28px" height="841.89px" viewBox="0 0 595.28 841.89" enable-background="new 0 0 595.28 841.89" xml:space="preserve">
<g>
	<g>
		<path fill="#FFFFFF" d="M257.172,486.323l11.21-22.703h0.284l11.209,22.703h-5.08l-2.242-4.541h-8.088l-2.242,4.541H257.172z
			 M266.707,477.241h3.604l-1.788-3.633L266.707,477.241z"/>
		<path fill="#FFFFFF" d="M282.145,486.323V463.62h9.081c0.927,0,1.807,0.18,2.64,0.539c0.832,0.359,1.556,0.846,2.171,1.461
			c0.615,0.615,1.102,1.338,1.461,2.172c0.359,0.832,0.539,1.711,0.539,2.639c0,1.305-0.331,2.488-0.993,3.547
			c-0.663,1.061-1.532,1.873-2.611,2.441l4.144,9.904h-4.91l-3.803-9.082h-3.179v9.082H282.145z M286.686,472.7h4.541
			c0.625,0,1.159-0.221,1.604-0.666c0.444-0.445,0.667-0.979,0.667-1.604s-0.223-1.158-0.667-1.604
			c-0.445-0.445-0.979-0.666-1.604-0.666h-4.541V472.7z M293.667,486.323h4.91l0.028,0.027L293.667,486.323z"/>
		<path fill="#FFFFFF" d="M300.875,486.323V463.62h9.08c0.928,0,1.807,0.18,2.641,0.539c0.832,0.359,1.555,0.846,2.17,1.461
			s1.102,1.338,1.463,2.172c0.357,0.832,0.539,1.711,0.539,2.639c0,0.945-0.182,1.83-0.539,2.652
			c-0.361,0.824-0.848,1.543-1.463,2.158s-1.338,1.102-2.17,1.461c-0.834,0.359-1.713,0.539-2.641,0.539h-4.539v9.082H300.875z
			 M305.416,472.7h4.539c0.625,0,1.16-0.221,1.604-0.666c0.445-0.445,0.668-0.979,0.668-1.604s-0.223-1.158-0.668-1.604
			c-0.443-0.445-0.979-0.666-1.604-0.666h-4.539V472.7z"/>
		<path fill="#FFFFFF" d="M313.135,486.323l11.211-22.703h0.283l11.209,22.703h-5.08l-2.24-4.541h-8.09l-2.24,4.541H313.135z
			 M322.67,477.241h3.605l-1.789-3.633L322.67,477.241z"/>
	</g>
	<g>
		
			<rect x="299.393" y="377.059" transform="matrix(-0.7201 -0.6939 0.6939 -0.7201 287.5011 895.2441)" fill="#FFFFFF" width="49.838" height="25.154"/>
		
			<ellipse transform="matrix(0.7201 -0.6938 0.6938 0.7201 -190.6664 288.4623)" fill="#FFFFFF" cx="262.243" cy="380.58" rx="24.918" ry="25.153"/>
		
			<rect x="246.05" y="377.059" transform="matrix(0.7201 -0.6938 0.6938 0.7201 -194.5096 297.0615)" fill="#FFFFFF" width="49.838" height="25.154"/>
		
			<ellipse transform="matrix(-0.7202 -0.6938 0.6938 -0.7202 308.8218 885.7222)" fill="#FFFFFF" cx="333.037" cy="380.58" rx="24.919" ry="25.154"/>
		<circle fill="#FFFFFF" cx="297.662" cy="393.646" r="3.987"/>
		<circle fill="#FFFFFF" cx="285.12" cy="406.188" r="3.987"/>
		<circle fill="#FFFFFF" cx="272.665" cy="418.644" r="3.987"/>
		<circle fill="#FFFFFF" cx="310.204" cy="406.188" r="3.987"/>
		<circle fill="#FFFFFF" cx="297.662" cy="418.73" r="3.986"/>
		<circle fill="#FFFFFF" cx="285.207" cy="431.186" r="3.987"/>
		<circle fill="#FFFFFF" cx="322.616" cy="418.687" r="3.987"/>
		<circle fill="#FFFFFF" cx="310.075" cy="431.229" r="3.987"/>
		<circle fill="#FFFFFF" cx="297.618" cy="443.685" r="3.986"/>
	</g>
</g>
</svg>
