<?xml version="1.0" encoding="utf-8"?>
<!-- Generator: Adobe Illustrator 16.0.0, SVG Export Plug-In . SVG Version: 6.00 Build 0)  -->
<!DOCTYPE svg PUBLIC "-//W3C//DTD SVG 1.1//EN" "http://www.w3.org/Graphics/SVG/1.1/DTD/svg11.dtd">
<svg version="1.1" id="Layer_1" xmlns="http://www.w3.org/2000/svg" xmlns:xlink="http://www.w3.org/1999/xlink" x="0px" y="0px"
	 width="595.28px" height="841.89px" viewBox="0 0 595.28 841.89" enable-background="new 0 0 595.28 841.89" xml:space="preserve">
<g>
	<g>
		<path fill="#FFFFFF" d="M222.806,476.066V448.77h3.397v27.297H222.806z"/>
		<path fill="#FFFFFF" d="M251.904,476.066l-15.919-21.771v21.771h-3.397V448.77h3.479l15.715,21.322V448.77h3.397v27.297H251.904z"
			/>
		<path fill="#FFFFFF" d="M259.927,472.219l2.005-2.578c1.8,2.006,4.747,3.889,8.594,3.889c4.87,0,6.425-2.619,6.425-4.707
			c0-7.039-16.165-3.15-16.165-12.891c0-4.502,4.011-7.57,9.372-7.57c4.174,0,7.407,1.391,9.699,3.805l-2.046,2.496
			c-2.046-2.25-4.911-3.273-7.898-3.273c-3.274,0-5.606,1.76-5.606,4.338c0,6.139,16.165,2.619,16.165,12.809
			c0,3.971-2.701,8.021-10.067,8.021C265.656,476.557,262.178,474.756,259.927,472.219z"/>
		<path fill="#FFFFFF" d="M285.547,476.066V448.77h3.397v27.297H285.547z"/>
		<path fill="#FFFFFF" d="M294.224,462.438c0-8.471,6.262-14.117,14.037-14.117c4.829,0,8.186,2.127,10.6,5.115l-2.701,1.678
			c-1.719-2.211-4.625-3.766-7.898-3.766c-5.975,0-10.518,4.584-10.518,11.09c0,6.467,4.543,11.133,10.518,11.133
			c3.273,0,5.975-1.596,7.326-2.947v-5.566h-9.372v-3.027h12.769v9.863c-2.537,2.822-6.262,4.705-10.723,4.705
			C300.485,476.598,294.224,470.91,294.224,462.438z"/>
		<path fill="#FFFFFF" d="M343.867,476.066v-12.523h-15.96v12.523h-3.397V448.77h3.397v11.746h15.96V448.77h3.396v27.297H343.867z"
			/>
		<path fill="#FFFFFF" d="M360.401,476.066v-24.268h-8.635v-3.029h20.708v3.029h-8.676v24.268H360.401z"/>
	</g>
	<g>
		<path fill="#FFFFFF" d="M278.069,415.119h-26.766c-1.36,0-2.467-1.107-2.467-2.467v-23.498c0.147-0.103,0.318-0.216,0.511-0.335
			l27.992-17.262c0.744-0.459,1.84-0.722,3.006-0.722c1.164,0,2.259,0.263,3.003,0.722l8.906,5.492l5.281-3.257l-11.277-6.955
			c-1.617-0.997-3.719-1.546-5.913-1.546c-2.197,0-4.297,0.549-5.916,1.546L246.438,384.1c-2.265,1.397-3.146,2.483-3.146,3.875
			v24.678c0,4.417,3.595,8.011,8.012,8.011h34.383C282.13,420.663,279.112,418.332,278.069,415.119z"/>
		<g>
			<path fill="#FFFFFF" d="M348.735,384.164l-28.092-17.325c-1.617-0.998-3.718-1.547-5.914-1.547c-2.197,0-4.297,0.549-5.915,1.546
				L280.823,384.1c-2.265,1.396-3.146,2.483-3.146,3.875v24.678c0,0.86,0.14,1.688,0.393,2.467h31.524
				c1.359,0,2.466-1.107,2.466-2.467v-23.368c-0.175-0.12-0.382-0.256-0.617-0.4l-19.188-11.834l5.281-3.257l16.816,10.371
				c2.109,1.3,3.252,2.303,3.252,3.875v24.613c0,4.417-3.594,8.011-8.011,8.011h34.384c4.417,0,8.011-3.594,8.011-8.011v-24.613
				C351.988,386.467,350.845,385.464,348.735,384.164z"/>
		</g>
	</g>
</g>
</svg>
