<?xml version="1.0" encoding="utf-8"?>
<!-- Generator: Adobe Illustrator 16.0.0, SVG Export Plug-In . SVG Version: 6.00 Build 0)  -->
<!DOCTYPE svg PUBLIC "-//W3C//DTD SVG 1.1//EN" "http://www.w3.org/Graphics/SVG/1.1/DTD/svg11.dtd">
<svg version="1.1" id="Layer_1" xmlns="http://www.w3.org/2000/svg" xmlns:xlink="http://www.w3.org/1999/xlink" x="0px" y="0px"
	 width="255.118px" height="255.118px" viewBox="0 0 255.118 255.118" enable-background="new 0 0 255.118 255.118"
	 xml:space="preserve">
<g>
	<g>
		<g>
			<g>
				<g>
					<polygon fill="#4D81C2" points="127.382,36.139 114.953,23.709 90.021,23.709 90.021,36.139 					"/>
					<polygon fill="#4D81C2" points="102.451,73.5 90.021,61.071 90.021,36.139 102.451,36.139 					"/>
				</g>
				<g>
					<polygon fill="#4D81C2" points="127.382,36.139 139.811,23.709 164.743,23.709 164.743,36.139 					"/>
					<polygon fill="#4D81C2" points="152.314,73.5 164.743,61.071 164.743,36.139 152.314,36.139 					"/>
				</g>
				<g>
					<g>
						<polygon fill="#4D81C2" points="127.382,110.862 139.811,123.292 164.743,123.292 164.743,110.862 						"/>
						<polygon fill="#4D81C2" points="152.314,73.5 164.743,85.93 164.743,110.862 152.314,110.862 						"/>
					</g>
					<g>
						<polygon fill="#4D81C2" points="127.382,110.862 114.953,123.292 90.021,123.292 90.021,110.862 						"/>
						<polygon fill="#4D81C2" points="102.451,73.5 90.021,85.93 90.021,110.862 102.451,110.862 						"/>
					</g>
				</g>
			</g>
		</g>
		<g>
			<g>
				<polygon fill="#2B2961" points="90.021,73.5 77.59,85.93 77.59,110.862 90.021,110.862 				"/>
				<polygon fill="#2B2961" points="127.382,98.432 114.953,110.862 90.021,110.862 90.021,98.432 				"/>
			</g>
			<g>
				<polygon fill="#2B2961" points="90.021,73.5 77.59,61.071 77.59,36.139 90.021,36.139 				"/>
				<polygon fill="#2B2961" points="127.382,48.569 114.953,36.139 90.021,36.139 90.021,48.569 				"/>
			</g>
			<g>
				<g>
					<polygon fill="#2B2961" points="164.743,73.5 177.174,61.071 177.174,36.139 164.743,36.139 					"/>
					<polygon fill="#2B2961" points="127.382,48.569 139.811,36.139 164.743,36.139 164.743,48.569 					"/>
				</g>
				<g>
					<polygon fill="#2B2961" points="164.743,73.5 177.174,85.93 177.174,110.862 164.743,110.862 					"/>
					<polygon fill="#2B2961" points="127.382,98.432 139.811,110.862 164.743,110.862 164.743,98.432 					"/>
				</g>
			</g>
		</g>
	</g>
	<g>
		<path fill="#2B2961" d="M24.955,230.557v-52.846h9.092v52.846H24.955z"/>
		<path fill="#2B2961" d="M40.722,190.709v-9.945h9.163v9.945H40.722z M40.722,230.557v-30.615h9.163v30.615H40.722z"/>
		<path fill="#2B2961" d="M70.129,230.557l-15.271-30.615h8.808l7.813,15.699l7.742-15.699h8.808l-15.271,30.615H70.129z"/>
		<path fill="#2B2961" d="M116.228,225.727c-2.912,3.48-7.387,5.682-12.288,5.682c-8.95,0-16.266-7.316-16.266-16.266
			c0-9.021,7.315-16.266,16.266-16.266c8.949,0,16.266,7.244,16.266,16.266c0,0.994-0.071,1.918-0.284,2.912H97.05
			c0.426,1.137,0.994,2.131,1.775,2.984c1.491,1.633,3.409,2.484,5.47,2.484c1.917,0,3.835-0.852,5.256-2.271L116.228,225.727z
			 M111.611,212.656c-0.354-1.277-0.994-2.486-1.918-3.48c-1.42-1.562-3.409-2.414-5.397-2.414c-2.061,0-3.979,0.852-5.47,2.414
			c-0.853,0.994-1.491,2.203-1.918,3.48H111.611z"/>
		<path fill="#4D81C2" d="M146.417,187.441c-0.497-0.639-1.705-1.705-3.339-1.705c-4.972,0-5.327,6.463-5.327,8.453v5.752h9.163
			v8.311h-9.163v22.305h-8.523v-22.305h-5.824v-8.311h5.824v-5.752c0-4.973,1.278-9.164,3.765-12.217
			c2.486-3.055,6.108-4.76,10.086-4.76c3.693,0,7.174,1.633,9.802,4.617L146.417,187.441z"/>
		<path fill="#4D81C2" d="M184.845,199.941v30.615h-7.529v-2.984c-2.841,2.416-6.535,3.836-10.513,3.836
			c-9.021,0-16.266-7.244-16.266-16.195c0-9.02,7.245-16.193,16.266-16.193c3.978,0,7.672,1.42,10.513,3.836l0.71-2.914H184.845z
			 M175.895,215.213c0-2.201-0.781-4.332-2.344-5.895c-1.491-1.562-3.48-2.416-5.611-2.416s-4.12,0.854-5.683,2.416
			c-1.491,1.562-2.344,3.693-2.344,5.895c0,2.203,0.853,4.262,2.344,5.896c1.562,1.562,3.552,2.414,5.683,2.414
			s4.12-0.852,5.611-2.414C175.114,219.475,175.895,217.416,175.895,215.213z"/>
		<path fill="#4D81C2" d="M191.593,190.709v-9.945h9.163v9.945H191.593z M191.593,230.557v-30.615h9.163v30.615H191.593z"/>
		<path fill="#4D81C2" d="M214.608,203.422c2.272-2.982,6.321-4.262,10.37-4.262c1.775,0,3.552,0.285,5.186,0.854l-3.48,7.885
			c-5.186-2.273-10.441,0.852-11.365,5.752v16.906h-8.879v-30.615h6.891L214.608,203.422z"/>
	</g>
</g>
</svg>
