<?xml version="1.0" encoding="utf-8"?>
<!-- Generator: Adobe Illustrator 16.0.0, SVG Export Plug-In . SVG Version: 6.00 Build 0)  -->
<!DOCTYPE svg PUBLIC "-//W3C//DTD SVG 1.1//EN" "http://www.w3.org/Graphics/SVG/1.1/DTD/svg11.dtd">
<svg version="1.1" id="Layer_1" xmlns="http://www.w3.org/2000/svg" xmlns:xlink="http://www.w3.org/1999/xlink" x="0px" y="0px"
	 width="255.118px" height="255.118px" viewBox="0 0 255.118 255.118" enable-background="new 0 0 255.118 255.118"
	 xml:space="preserve">
<g>
	<g>
		<g>
			<g>
				<g>
					<polygon fill="#FFFFFF" points="127.381,36.181 114.952,23.751 90.02,23.751 90.02,36.181 					"/>
					<polygon fill="#FFFFFF" points="102.45,73.542 90.02,61.112 90.02,36.181 102.45,36.181 					"/>
				</g>
				<g>
					<polygon fill="#FFFFFF" points="127.381,36.181 139.81,23.751 164.742,23.751 164.742,36.181 					"/>
					<polygon fill="#FFFFFF" points="152.313,73.542 164.742,61.112 164.742,36.181 152.313,36.181 					"/>
				</g>
				<g>
					<g>
						<polygon fill="#FFFFFF" points="127.381,110.903 139.81,123.334 164.742,123.334 164.742,110.903 						"/>
						<polygon fill="#FFFFFF" points="152.313,73.542 164.742,85.972 164.742,110.903 152.313,110.903 						"/>
					</g>
					<g>
						<polygon fill="#FFFFFF" points="127.381,110.903 114.952,123.334 90.02,123.334 90.02,110.903 						"/>
						<polygon fill="#FFFFFF" points="102.45,73.542 90.02,85.972 90.02,110.903 102.45,110.903 						"/>
					</g>
				</g>
			</g>
		</g>
		<g>
			<g>
				<polygon fill="#FFFFFF" points="90.02,73.542 77.589,85.972 77.589,110.903 90.02,110.903 				"/>
				<polygon fill="#FFFFFF" points="127.381,98.474 114.952,110.903 90.02,110.903 90.02,98.474 				"/>
			</g>
			<g>
				<polygon fill="#FFFFFF" points="90.02,73.542 77.589,61.112 77.589,36.181 90.02,36.181 				"/>
				<polygon fill="#FFFFFF" points="127.381,48.61 114.952,36.181 90.02,36.181 90.02,48.61 				"/>
			</g>
			<g>
				<g>
					<polygon fill="#FFFFFF" points="164.742,73.542 177.173,61.112 177.173,36.181 164.742,36.181 					"/>
					<polygon fill="#FFFFFF" points="127.381,48.61 139.81,36.181 164.742,36.181 164.742,48.61 					"/>
				</g>
				<g>
					<polygon fill="#FFFFFF" points="164.742,73.542 177.173,85.972 177.173,110.903 164.742,110.903 					"/>
					<polygon fill="#FFFFFF" points="127.381,98.474 139.81,110.903 164.742,110.903 164.742,98.474 					"/>
				</g>
			</g>
		</g>
	</g>
	<g>
		<path fill="#FFFFFF" d="M24.954,230.516V177.67h9.092v52.846H24.954z"/>
		<path fill="#FFFFFF" d="M40.722,190.668v-9.945h9.163v9.945H40.722z M40.722,230.516V199.9h9.163v30.615H40.722z"/>
		<path fill="#FFFFFF" d="M70.129,230.516L54.858,199.9h8.808l7.813,15.699l7.742-15.699h8.808l-15.271,30.615H70.129z"/>
		<path fill="#FFFFFF" d="M116.228,225.686c-2.912,3.48-7.387,5.682-12.288,5.682c-8.95,0-16.266-7.316-16.266-16.266
			c0-9.021,7.315-16.266,16.266-16.266c8.949,0,16.266,7.244,16.266,16.266c0,0.994-0.071,1.918-0.284,2.912H97.05
			c0.426,1.137,0.994,2.131,1.775,2.984c1.491,1.633,3.409,2.484,5.47,2.484c1.917,0,3.835-0.852,5.256-2.271L116.228,225.686z
			 M111.611,212.615c-0.354-1.277-0.994-2.486-1.918-3.48c-1.42-1.562-3.409-2.414-5.397-2.414c-2.061,0-3.979,0.852-5.47,2.414
			c-0.853,0.994-1.491,2.203-1.918,3.48H111.611z"/>
		<path fill="#FFFFFF" d="M146.417,187.4c-0.497-0.639-1.705-1.705-3.339-1.705c-4.972,0-5.327,6.463-5.327,8.453v5.752h9.163v8.311
			h-9.163v22.305h-8.523v-22.305h-5.824V199.9h5.824v-5.752c0-4.973,1.278-9.164,3.765-12.217c2.486-3.055,6.108-4.76,10.086-4.76
			c3.693,0,7.174,1.633,9.802,4.617L146.417,187.4z"/>
		<path fill="#FFFFFF" d="M184.845,199.9v30.615h-7.529v-2.984c-2.841,2.416-6.535,3.836-10.513,3.836
			c-9.021,0-16.266-7.244-16.266-16.195c0-9.02,7.245-16.193,16.266-16.193c3.978,0,7.672,1.42,10.513,3.836l0.71-2.914H184.845z
			 M175.895,215.172c0-2.201-0.781-4.332-2.344-5.895c-1.491-1.562-3.48-2.416-5.611-2.416s-4.12,0.854-5.683,2.416
			c-1.491,1.562-2.344,3.693-2.344,5.895c0,2.203,0.853,4.262,2.344,5.896c1.562,1.562,3.552,2.414,5.683,2.414
			s4.12-0.852,5.611-2.414C175.114,219.434,175.895,217.375,175.895,215.172z"/>
		<path fill="#FFFFFF" d="M191.593,190.668v-9.945h9.163v9.945H191.593z M191.593,230.516V199.9h9.163v30.615H191.593z"/>
		<path fill="#FFFFFF" d="M214.608,203.381c2.272-2.982,6.321-4.262,10.37-4.262c1.775,0,3.552,0.285,5.186,0.854l-3.48,7.885
			c-5.186-2.273-10.441,0.852-11.365,5.752v16.906h-8.879V199.9h6.891L214.608,203.381z"/>
	</g>
</g>
</svg>
