<?xml version="1.0" encoding="utf-8"?>
<!-- Generator: Adobe Illustrator 15.0.0, SVG Export Plug-In . SVG Version: 6.00 Build 0)  -->
<!DOCTYPE svg PUBLIC "-//W3C//DTD SVG 1.1//EN" "http://www.w3.org/Graphics/SVG/1.1/DTD/svg11.dtd">
<svg version="1.1" id="Layer_1" xmlns="http://www.w3.org/2000/svg" xmlns:xlink="http://www.w3.org/1999/xlink" x="0px" y="0px"
	 width="100px" height="100px" viewBox="0 0 100 100" enable-background="new 0 0 100 100" xml:space="preserve">
<g>
	<path fill="#FFFFFF" d="M32.699,26.229l8.434,10.013c2.558-1.65,5.596-2.621,8.865-2.621c9.047,0,16.382,7.333,16.382,16.38
		c0,1.632-0.245,3.203-0.688,4.689l17.035,7.568c2.09-2.652,5.652-3.885,9.062-2.861l6.615-20.176L50.092,3.925L32.743,16.461
		C34.854,19.472,34.736,23.388,32.699,26.229"/>
	<path fill="#FFFFFF" d="M17.272,62.259L34.31,54.69c-0.444-1.486-0.69-3.058-0.69-4.689c0-4.272,1.65-8.15,4.328-11.065
		l-8.439-10.021c-3.589,1.743-8.004,0.743-10.462-2.56L1.596,38.964l6.583,20.439C11.6,58.364,15.176,59.599,17.272,62.259"/>
	<path fill="#FFFFFF" d="M44.596,89.573c0.951-0.789,2.082-1.369,3.318-1.682V66.233c-5.049-0.643-9.369-3.58-11.898-7.738
		l-17.051,7.578c0.269,1.566,0.093,3.133-0.471,4.545L44.596,89.573z"/>
	<path fill="#FFFFFF" d="M81.035,66.069l-17.051-7.574c-2.531,4.158-6.852,7.094-11.898,7.738v21.658
		c3.643,0.926,6.34,4.207,6.365,8.129l21.313,0.055l6.766-20.641C82.631,74.046,80.35,70.069,81.035,66.069"/>
	<path fill="#FFFFFF" d="M42.146,92.95L16.04,73.989c-0.773,0.645-1.679,1.148-2.685,1.492l6.58,20.436l21.611,0.059
		C41.56,94.907,41.772,93.89,42.146,92.95"/>
</g>
</svg>
