<?xml version="1.0" encoding="utf-8"?>
<!-- Generator: Adobe Illustrator 16.0.0, SVG Export Plug-In . SVG Version: 6.00 Build 0)  -->
<!DOCTYPE svg PUBLIC "-//W3C//DTD SVG 1.1//EN" "http://www.w3.org/Graphics/SVG/1.1/DTD/svg11.dtd">
<svg version="1.1" id="Layer_1" xmlns="http://www.w3.org/2000/svg" xmlns:xlink="http://www.w3.org/1999/xlink" x="0px" y="0px"
	 width="212.598px" height="212.599px" viewBox="0 0 212.598 212.599" enable-background="new 0 0 212.598 212.599"
	 xml:space="preserve">
<g>
	<path fill="#FFFFFF" d="M41.976,208.305l18.332-37.127h0.464l18.332,37.127h-8.308l-3.666-7.426H53.903l-3.667,7.426H41.976z
		 M57.569,193.453h5.895l-2.924-5.94L57.569,193.453z"/>
	<path fill="#FFFFFF" d="M82.815,208.305v-37.127h14.851c1.516,0,2.955,0.294,4.316,0.881c1.361,0.588,2.545,1.386,3.55,2.39
		c1.005,1.006,1.802,2.19,2.39,3.551c0.587,1.362,0.881,2.801,0.881,4.316c0,2.135-0.542,4.069-1.624,5.802
		c-1.083,1.733-2.506,3.062-4.271,3.99l6.776,16.197h-8.028l-6.219-14.852h-5.198v14.852H82.815z M90.241,186.027h7.425
		c1.021,0,1.895-0.362,2.623-1.09c0.727-0.727,1.09-1.601,1.09-2.622s-0.364-1.895-1.09-2.622c-0.728-0.727-1.601-1.091-2.623-1.091
		h-7.425V186.027z M101.658,208.305h8.028l0.047,0.047L101.658,208.305z"/>
	<path fill="#FFFFFF" d="M113.445,208.305v-37.127h14.852c1.515,0,2.954,0.294,4.315,0.881c1.362,0.588,2.546,1.386,3.551,2.39
		c1.005,1.006,1.802,2.19,2.39,3.551c0.589,1.362,0.882,2.801,0.882,4.316c0,1.547-0.293,2.993-0.882,4.339
		c-0.588,1.346-1.385,2.522-2.39,3.527c-1.005,1.006-2.188,1.803-3.551,2.391c-1.361,0.588-2.801,0.881-4.315,0.881h-7.426v14.852
		H113.445z M120.871,186.027h7.426c1.021,0,1.896-0.362,2.621-1.09c0.728-0.727,1.093-1.601,1.093-2.622s-0.365-1.895-1.093-2.622
		c-0.726-0.727-1.601-1.091-2.621-1.091h-7.426V186.027z"/>
	<path fill="#FFFFFF" d="M133.496,208.305l18.332-37.127h0.462l18.332,37.127h-8.307l-3.666-7.426h-13.227l-3.666,7.426H133.496z
		 M149.088,193.453h5.895l-2.925-5.94L149.088,193.453z"/>
</g>
<g>
	
		<rect x="109.164" y="39.44" transform="matrix(-0.7201 -0.6938 0.6938 -0.7201 216.2368 207.2371)" fill="#FFFFFF" width="81.502" height="41.135"/>
	
		<ellipse transform="matrix(0.7201 -0.6938 0.6938 0.7201 -17.81 46.2385)" fill="#FFFFFF" cx="48.412" cy="45.197" rx="40.75" ry="41.134"/>
	
		<rect x="21.931" y="39.44" transform="matrix(0.7201 -0.6938 0.6938 0.7201 -24.0923 60.286)" fill="#FFFFFF" width="81.503" height="41.135"/>
	<path fill="#FFFFFF" d="M134.841,16.923c-15.765,16.359-15.405,42.28,0.805,57.896c16.204,15.616,42.122,15.013,57.885-1.348
		c15.764-16.359,15.401-42.28-0.805-57.895C176.518-0.041,150.602,0.562,134.841,16.923z"/>
	<circle fill="#FFFFFF" stroke="#FFFFFF" stroke-miterlimit="10" cx="106.334" cy="66.565" r="6.52"/>
	<circle fill="#FFFFFF" stroke="#FFFFFF" stroke-miterlimit="10" cx="85.824" cy="87.075" r="6.52"/>
	<circle fill="#FFFFFF" stroke="#FFFFFF" stroke-miterlimit="10" cx="65.456" cy="107.444" r="6.52"/>
	<circle fill="#FFFFFF" stroke="#FFFFFF" stroke-miterlimit="10" cx="126.845" cy="87.075" r="6.52"/>
	<circle fill="#FFFFFF" stroke="#FFFFFF" stroke-miterlimit="10" cx="106.334" cy="107.585" r="6.52"/>
	<circle fill="#FFFFFF" stroke="#FFFFFF" stroke-miterlimit="10" cx="85.966" cy="127.955" r="6.52"/>
	<circle fill="#FFFFFF" stroke="#FFFFFF" stroke-miterlimit="10" cx="147.143" cy="107.515" r="6.52"/>
	<circle fill="#FFFFFF" stroke="#FFFFFF" stroke-miterlimit="10" cx="126.633" cy="128.026" r="6.52"/>
	<circle fill="#FFFFFF" stroke="#FFFFFF" stroke-miterlimit="10" cx="106.265" cy="148.394" r="6.52"/>
</g>
</svg>
