<?xml version="1.0" encoding="utf-8"?>
<!-- Generator: Adobe Illustrator 15.0.0, SVG Export Plug-In . SVG Version: 6.00 Build 0)  -->
<!DOCTYPE svg PUBLIC "-//W3C//DTD SVG 1.1//EN" "http://www.w3.org/Graphics/SVG/1.1/DTD/svg11.dtd">
<svg version="1.1" id="Layer_1" xmlns="http://www.w3.org/2000/svg" xmlns:xlink="http://www.w3.org/1999/xlink" x="0px" y="0px"
	 width="2208px" height="2208px" viewBox="0 0 2208 2208" enable-background="new 0 0 2208 2208" xml:space="preserve">
<g>
	<g>
		<g>
			<path fill="#0477BD" d="M1318.368,1055.721h60.757c-0.014-103.648-59.347-193.625-145.791-237.96l-30.413,52.672
				C1271.238,904.153,1318.355,974.52,1318.368,1055.721z"/>
			<path fill="#0477BD" d="M1394.346,1054.197c0,12.205-0.865,24.197-2.376,36.003l60.397,13.442
				c2.316-16.084,3.582-32.508,3.582-49.244c0-105.459-47.729-199.916-122.661-263.103c-41.072-34.711-90.331-60.013-144.447-72.523
				l-10.713,60.751c43.787,10.594,83.636,31.357,116.87,59.693C1355.727,891.148,1394.346,968.218,1394.346,1054.197z"/>
			<path fill="#0477BD" d="M1469.863,1052.561h-0.42c0,30.804-3.912,60.691-11.266,89.232l58.614,19.604
				c9.33-34.716,14.401-71.152,14.401-108.776c0-231.12-188.044-419.155-419.169-419.155h-0.013v61.329h0.014
				C1309.317,694.789,1469.824,855.293,1469.863,1052.561z"/>
		</g>
		<g>
			<path fill="#9D9D9C" d="M1308.971,1117.324c-26.265,83.896-104.718,144.934-197.159,144.934
				c-113.875,0-206.543-92.646-206.543-206.523c0-6.314,0-517.671,0-517.671h-60.757v517.652v0.021
				c0,147.389,119.912,267.28,267.301,267.28c126.194,0,232.158-87.909,260.062-205.69h-62.902V1117.324z"/>
			<path fill="#9D9D9C" d="M1376.711,1152.488c-40.021,107.692-143.822,184.635-265.284,184.635c-19.419,0-38.399-1.97-56.739-5.729
				c-128.637-26.486-225.669-140.615-225.669-276.989v-16.358v-180.31V405.134h-61.33v631.616
				c-0.293,5.788-0.495,11.592-0.495,17.447c0,166.169,118.336,305.214,275.148,337.289c22.452,4.618,45.677,7.04,69.476,7.04
				c150.702,0,279.006-97.411,325.464-232.557L1376.711,1152.488z"/>
			<path fill="#9D9D9C" d="M1436.571,1202.159l0.124-0.347c-56.672,122.847-180.942,208.373-324.891,208.373
				c-197.188,0-357.606-160.432-357.606-357.625v-0.459c0.014-3.619,0.16-7.221,0.272-10.807h-0.272V834.551V143.237h-61.33v908.618
				c0,0.253-0.014,0.506-0.014,0.76c0,231.132,188.037,419.182,419.17,419.182c170.927,0,318.184-102.904,383.353-249.953
				L1436.571,1202.159z"/>
		</g>
	</g>
	<g>
		<path fill="#0477BD" d="M101.796,1747.791h35.797v143.172c9.54-15.338,24.547-28.198,44.998-38.604
			c20.451-10.394,40.402-15.599,59.83-15.599c19.437,0,37.669,3.661,54.719,10.998c17.034,7.337,31.954,17.385,44.74,30.17
			c12.789,12.784,22.833,27.694,30.169,44.738c7.334,17.051,10.992,35.282,10.992,54.72c0,19.427-3.657,37.666-10.992,54.712
			c-7.336,17.05-17.38,31.954-30.169,44.728c-12.786,12.783-27.698,22.853-44.74,30.174c-17.05,7.324-35.285,10.991-54.719,10.991
			c-19.428,0-37.667-3.667-54.711-10.991c-17.048-7.322-31.956-17.391-44.74-30.174c-12.784-12.772-22.846-27.677-30.169-44.728
			c-7.34-17.046-10.998-35.285-10.998-54.712v-229.596H101.796z M137.585,1977.388c0,14.312,2.734,27.865,8.186,40.649
			c5.448,12.784,12.945,23.952,22.495,33.491c9.538,9.551,20.709,17.05,33.491,22.485c12.784,5.461,26.334,8.185,40.65,8.185
			c14.324,0,27.872-2.722,40.658-8.185c12.781-5.436,23.938-12.935,33.49-22.485c9.534-9.539,17.04-20.714,22.496-33.491
			c5.444-12.784,8.179-26.338,8.179-40.649c0-14.319-2.735-27.873-8.179-40.656c-5.456-12.785-12.961-23.947-22.496-33.492
			c-9.551-9.537-20.717-17.042-33.49-22.49c-12.786-5.45-26.334-8.188-40.658-8.188c-14.316,0-27.866,2.737-40.65,8.188
			c-12.789,5.448-23.953,12.953-33.491,22.49c-9.551,9.545-17.048,20.714-22.495,33.492
			C140.319,1949.515,137.585,1963.068,137.585,1977.388z"/>
		<path fill="#0477BD" d="M445.412,1977.388c0,14.312,2.728,27.865,8.18,40.649c5.453,12.784,12.951,23.952,22.495,33.491
			c9.544,9.551,20.714,17.05,33.496,22.485c12.787,5.461,26.33,8.185,40.651,8.185c14.325,0,27.866-2.722,40.65-8.185
			c12.79-5.436,23.947-12.935,33.498-22.485c6.81-6.812,12.604-14.655,17.383-23.519h39.371l-1.536,4.09
			c-7.159,17.05-17.135,31.954-29.914,44.728c-12.786,12.783-27.698,22.854-44.747,30.175c-17.051,7.323-35.285,10.99-54.712,10.99
			c-19.43,0-37.668-3.667-54.712-10.99c-17.048-7.323-31.964-17.392-44.747-30.175c-12.779-12.772-22.839-27.677-30.168-44.728
			c-7.334-17.046-10.993-35.285-10.993-54.712c0-19.438,3.658-37.669,10.993-54.72c7.329-17.037,17.389-31.953,30.168-44.737
			c12.783-12.786,27.693-22.834,44.747-30.171c17.044-7.337,35.282-10.997,54.712-10.997c19.427,0,37.661,3.66,54.712,10.997
			c17.041,7.337,31.961,17.385,44.747,30.171c12.777,12.784,22.755,27.693,29.914,44.737c6.135,13.987,9.711,28.642,10.74,43.979
			H445.917C445.584,1970.403,445.412,1973.97,445.412,1977.388z M624.389,1903.233c-9.552-9.539-20.715-17.044-33.494-22.493
			c-12.791-5.449-26.331-8.186-40.654-8.186c-14.323,0-27.865,2.736-40.649,8.186c-12.79,5.449-23.953,12.954-33.497,22.493
			c-8.179,8.18-14.822,17.384-19.935,27.614h187.666C638.694,1920.623,632.221,1911.412,624.389,1903.233z"/>
		<path fill="#0477BD" d="M715.404,1977.388c0-19.438,3.652-37.669,10.99-54.72c7.33-17.037,17.385-31.954,30.169-44.737
			c12.786-12.786,27.692-22.834,44.748-30.171c17.036-7.337,35.275-10.999,54.711-10.999c19.43,0,37.662,3.662,54.712,10.999
			c17.035,7.337,31.956,17.385,44.741,30.171c12.784,12.783,22.838,27.692,30.168,44.737c7.333,17.051,10.997,35.282,10.997,54.72
			v128.344h-35.798v-34.266c-1.708,1.706-3.572,3.587-5.625,5.625c-12.604,12.621-27.444,22.595-44.484,29.919
			c-17.05,7.329-35.283,10.99-54.712,10.99c-19.436,0-37.674-3.661-54.712-10.99c-17.046-7.324-31.961-17.393-44.746-30.177
			c-12.786-12.771-22.84-27.677-30.17-44.727C719.055,2015.054,715.404,1996.814,715.404,1977.388z M751.192,1977.388
			c0,14.312,2.729,27.865,8.178,40.649c5.449,12.784,12.952,23.952,22.497,33.491c9.544,9.551,20.717,17.05,33.498,22.485
			c12.777,5.461,26.326,8.185,40.65,8.185c14.316,0,27.865-2.722,40.65-8.185c12.788-5.436,23.939-12.935,33.49-22.485
			c9.538-9.539,17.032-20.626,22.494-33.238c4.773-11.584,7.5-23.689,8.178-36.304v-4.6c0-14.32-2.732-27.873-8.178-40.656
			c-5.461-12.785-12.957-23.947-22.494-33.491c-9.552-9.539-20.71-17.044-33.49-22.492c-12.786-5.449-26.335-8.187-40.65-8.187
			c-14.325,0-27.873,2.737-40.65,8.187c-12.789,5.448-23.954,12.953-33.498,22.492c-9.545,9.544-17.047,20.712-22.497,33.491
			C753.921,1949.515,751.192,1963.068,751.192,1977.388z"/>
		<path fill="#0477BD" d="M1033.963,1850.062h36.806v23.007c8.192-10.909,19.344-19.686,33.5-26.334
			c14.137-6.646,28.877-9.975,44.219-9.975c20.113,0,38.259,4.864,54.454,14.578c16.193,9.721,29.576,22.587,40.148,38.604
			c10.229-16.017,24.115-28.884,41.669-38.604c17.555-9.715,36.562-14.578,57.022-14.578c15.663,0,30.5,3.064,44.48,9.204
			c13.981,6.141,26.154,14.401,36.562,24.797c10.394,10.399,18.57,22.676,24.55,36.818c5.95,14.149,8.939,29.066,8.939,44.747
			l0.517,153.396h-36.818l-0.517-153.396c0-10.902-2.038-21.133-6.128-30.679c-4.09-9.545-9.634-17.899-16.624-25.068
			c-6.997-7.146-15.182-12.776-24.542-16.874c-9.383-4.089-19.53-6.133-30.42-6.133c-10.924,0-21.06,2.044-30.435,6.133
			c-9.382,4.098-17.635,9.721-24.794,16.874c-7.16,7.16-12.786,15.518-16.876,25.068c-4.089,9.55-6.14,19.775-6.14,30.679
			l0.517,153.396h-36.806l-0.517-153.396c-0.687-11.249-3.151-21.731-7.403-31.452c-4.266-9.709-9.893-18.063-16.873-25.061
			c-6.998-6.983-15.096-12.438-24.295-16.364c-9.195-3.912-19.089-5.883-29.657-5.883c-10.577,0-20.542,2.216-29.917,6.649
			c-9.383,4.429-17.64,10.306-24.797,17.642c-7.16,7.333-12.787,15.681-16.878,25.054c-4.089,9.383-6.14,19.179-6.14,29.409
			l0.516,153.397h-36.817L1033.963,1850.062z"/>
		<path fill="#0477BD" d="M1489.043,1769.265c0-6.136,2.039-11.249,6.128-15.339c4.094-4.09,9.21-6.134,15.338-6.134
			c6.148,0,11.248,2.044,15.338,6.134c4.104,4.09,6.142,9.203,6.142,15.339c0,6.141-2.039,11.248-6.142,15.346
			c-4.09,4.09-9.189,6.134-15.338,6.134c-6.129,0-11.245-2.044-15.338-6.134C1491.081,1780.513,1489.043,1775.405,1489.043,1769.265
			z M1492.104,1850.062h35.794v255.66h-35.794V1850.062z"/>
		<path fill="#0477BD" d="M1558.059,1977.388c0-19.438,3.657-37.669,10.995-54.72c7.341-17.037,17.39-31.954,30.173-44.737
			c12.793-12.786,27.691-22.834,44.748-30.171c17.035-7.337,35.283-10.999,54.711-10.999s37.654,3.662,54.705,10.999
			s31.978,17.385,44.747,30.171c12.785,12.783,22.831,27.692,30.176,44.737c7.33,17.051,10.99,35.282,10.99,54.72v128.344h-35.792
			v-34.266c-1.711,1.706-3.587,3.587-5.625,5.625c-12.623,12.621-27.446,22.595-44.497,29.919
			c-17.051,7.329-35.276,10.99-54.704,10.99c-19.43,0-37.677-3.661-54.711-10.99c-17.045-7.324-31.956-17.393-44.749-30.177
			c-12.783-12.771-22.831-27.677-30.173-44.727C1561.729,2015.054,1558.059,1996.814,1558.059,1977.388z M1593.876,1977.388
			c0,14.312,2.715,27.865,8.178,40.649c5.448,12.784,12.941,23.952,22.491,33.491c9.539,9.551,20.713,17.05,33.484,22.485
			c12.785,5.461,26.329,8.185,40.656,8.185s27.866-2.722,40.649-8.185c12.793-5.436,23.947-12.935,33.485-22.485
			c9.55-9.539,17.049-20.626,22.498-33.238c4.782-11.584,7.5-23.689,8.193-36.304v-4.6c0-14.32-2.746-27.873-8.193-40.656
			c-5.449-12.785-12.948-23.947-22.498-33.491c-9.539-9.539-20.706-17.044-33.485-22.492c-12.783-5.449-26.322-8.187-40.649-8.187
			s-27.871,2.737-40.656,8.187c-12.784,5.448-23.947,12.953-33.484,22.492c-9.55,9.544-17.043,20.712-22.491,33.491
			C1596.58,1949.515,1593.876,1963.068,1593.876,1977.388z"/>
		<path fill="#0477BD" d="M2068.888,1952.327c0-10.902-2.036-21.133-6.127-30.678c-4.097-9.545-9.706-17.9-16.88-25.069
			c-7.154-7.146-15.502-12.775-25.07-16.874c-9.536-4.089-19.604-6.133-30.158-6.133c-10.57,0-20.624,2.214-30.178,6.651
			c-9.536,4.428-17.893,10.304-25.053,17.642c-7.165,7.33-12.865,15.768-17.131,25.311c-4.268,9.544-6.386,19.259-6.386,29.144
			l0.517,153.397h-36.324v-255.655h35.795v23.518c3.396-5.448,8.002-10.482,13.803-15.081c5.788-4.604,12.188-8.525,19.17-11.764
			c6.985-3.236,14.403-5.694,22.255-7.406c7.841-1.705,15.666-2.561,23.52-2.561c15.678,0,30.499,3.062,44.481,9.204
			c13.986,6.141,26.173,14.402,36.561,24.795c10.393,10.4,18.676,22.677,24.809,36.821c6.128,14.149,9.197,29.066,9.197,44.744
			l0.517,153.398h-36.821L2068.888,1952.327z"/>
	</g>
</g>
</svg>
