<?xml version="1.0" encoding="utf-8"?>
<!-- Generator: Adobe Illustrator 15.0.0, SVG Export Plug-In . SVG Version: 6.00 Build 0)  -->
<!DOCTYPE svg PUBLIC "-//W3C//DTD SVG 1.1//EN" "http://www.w3.org/Graphics/SVG/1.1/DTD/svg11.dtd">
<svg version="1.1" id="Layer_1" xmlns="http://www.w3.org/2000/svg" xmlns:xlink="http://www.w3.org/1999/xlink" x="0px" y="0px"
	 width="2208px" height="2208px" viewBox="0 0 2208 2208" enable-background="new 0 0 2208 2208" xml:space="preserve">
<g>
	<g>
		<g>
			<path fill="#FFFFFF" d="M1368.814,1079.788h61.392c-0.013-104.733-59.966-195.652-147.316-240.45l-30.73,53.223
				C1321.19,926.633,1368.8,997.736,1368.814,1079.788z"/>
			<path fill="#FFFFFF" d="M1445.585,1078.246c0,12.333-0.873,24.452-2.399,36.38l61.031,13.582
				c2.34-16.252,3.617-32.849,3.617-49.76c0-106.561-48.228-202.007-123.943-265.854c-41.504-35.074-91.277-60.64-145.959-73.281
				l-10.827,61.386c44.246,10.706,84.512,31.687,118.094,60.317C1406.563,913.494,1445.585,991.368,1445.585,1078.246z"/>
			<path fill="#FFFFFF" d="M1521.895,1076.594h-0.425c0,31.126-3.952,61.326-11.384,90.167l59.229,19.81
				c9.426-35.083,14.551-71.897,14.551-109.917c0-233.538-190.01-423.542-423.553-423.542h-0.015v61.972h0.015
				C1359.669,715.077,1521.854,877.264,1521.895,1076.594z"/>
		</g>
		<g>
			<path fill="#FFFFFF" d="M1359.318,1142.035c-26.541,84.774-105.814,146.45-199.223,146.45
				c-115.067,0-208.705-93.618-208.705-208.685c0-6.381,0-523.089,0-523.089h-61.392v523.069v0.02
				c0,148.933,121.165,270.077,270.097,270.077c127.514,0,234.587-88.828,262.781-207.843H1359.318L1359.318,1142.035z"/>
			<path fill="#FFFFFF" d="M1427.766,1177.566c-40.441,108.821-145.327,186.566-268.059,186.566c-19.623,0-38.801-1.99-57.334-5.788
				c-129.981-26.764-228.029-142.087-228.029-279.889v-16.528V879.73V422.394h-61.971v638.222
				c-0.295,5.851-0.498,11.715-0.498,17.633c0,167.907,119.572,308.406,278.026,340.818c22.688,4.666,46.157,7.111,70.203,7.111
				c152.279,0,281.923-98.429,328.867-234.987L1427.766,1177.566z"/>
			<path fill="#FFFFFF" d="M1488.252,1227.758l0.127-0.351c-57.265,124.132-182.835,210.553-328.29,210.553
				c-199.25,0-361.348-162.11-361.348-361.366v-0.465c0.014-3.658,0.162-7.296,0.276-10.919h-0.276V856.303V157.756h-61.973v918.125
				c0,0.256-0.013,0.51-0.013,0.767c0,233.551,190.004,423.567,423.555,423.567c172.716,0,321.513-103.979,387.365-252.566
				L1488.252,1227.758z"/>
		</g>
	</g>
	<g>
		<path fill="#FFFFFF" d="M140.524,1770.089h34.415v137.643c9.175-14.747,23.599-27.116,43.259-37.121
			c19.665-9.985,38.841-14.987,57.519-14.987c18.685,0,36.213,3.521,52.604,10.572c16.376,7.054,30.721,16.713,43.016,29.003
			c12.29,12.291,21.947,26.625,29.002,43.011c7.047,16.391,10.567,33.92,10.567,52.604c0,18.677-3.521,36.213-10.567,52.598
			c-7.055,16.386-16.712,30.72-29.002,43.005c-12.295,12.291-26.632,21.969-43.016,29.009c-16.391,7.04-33.919,10.568-52.604,10.568
			c-18.678,0-36.213-3.528-52.595-10.568c-16.393-7.04-30.724-16.718-43.014-29.009c-12.29-12.285-21.963-26.619-29.002-43.005
			c-7.057-16.385-10.573-33.921-10.573-52.598v-220.725H140.524z M174.932,1990.813c0,13.761,2.629,26.789,7.87,39.08
			c5.238,12.291,12.447,23.028,21.629,32.195c9.166,9.183,19.905,16.387,32.193,21.624c12.29,5.251,25.315,7.87,39.08,7.87
			c13.77,0,26.799-2.619,39.089-7.87c12.282-5.237,23.01-12.441,32.192-21.624c9.169-9.167,16.382-19.912,21.626-32.195
			c5.237-12.29,7.863-25.318,7.863-39.08c0-13.773-2.626-26.795-7.863-39.087c-5.244-12.297-12.457-23.021-21.626-32.195
			c-9.183-9.168-19.916-16.387-32.192-21.63c-12.29-5.231-25.32-7.863-39.089-7.863c-13.765,0-26.789,2.632-39.08,7.863
			c-12.294,5.243-23.027,12.461-32.193,21.63c-9.182,9.175-16.391,19.905-21.629,32.195
			C177.561,1964.018,174.932,1977.04,174.932,1990.813z"/>
		<path fill="#FFFFFF" d="M470.862,1990.813c0,13.761,2.622,26.789,7.863,39.08c5.244,12.291,12.455,23.028,21.63,32.195
			c9.177,9.183,19.915,16.387,32.199,21.624c12.29,5.251,25.31,7.87,39.08,7.87s26.792-2.619,39.084-7.87
			c12.289-5.237,23.016-12.441,32.199-21.624c6.546-6.55,12.116-14.086,16.712-22.608h37.848l-1.475,3.931
			c-6.883,16.386-16.47,30.72-28.756,43.005c-12.293,12.291-26.632,21.969-43.02,29.009c-16.393,7.04-33.921,10.568-52.599,10.568
			s-36.212-3.528-52.594-10.568c-16.393-7.04-30.731-16.718-43.022-29.009c-12.281-12.285-21.955-26.619-29.002-43.005
			c-7.049-16.385-10.566-33.921-10.566-52.598c0-18.685,3.518-36.214,10.566-52.604c7.047-16.379,16.721-30.72,29.002-43.011
			c12.291-12.29,26.624-21.949,43.022-29.003c16.382-7.053,33.916-10.572,52.594-10.572s36.206,3.521,52.599,10.572
			c16.382,7.054,30.727,16.713,43.02,29.003c12.285,12.291,21.872,26.625,28.756,43.011c5.898,13.446,9.336,27.532,10.324,42.279
			H471.353C471.023,1984.099,470.862,1987.535,470.862,1990.813z M642.923,1919.531c-9.183-9.168-19.916-16.387-32.198-21.63
			c-12.292-5.231-25.314-7.863-39.085-7.863c-13.77,0-26.787,2.632-39.08,7.863c-12.293,5.243-23.022,12.461-32.199,21.63
			c-7.865,7.862-14.252,16.711-19.167,26.547h180.413C656.681,1936.242,650.453,1927.387,642.923,1919.531z"/>
		<path fill="#FFFFFF" d="M730.422,1990.813c0-18.685,3.509-36.214,10.566-52.604c7.047-16.379,16.714-30.72,29.003-43.011
			c12.291-12.29,26.622-21.949,43.021-29.003c16.376-7.053,33.91-10.572,52.595-10.572c18.679,0,36.205,3.521,52.598,10.572
			c16.375,7.054,30.721,16.713,43.015,29.003c12.289,12.291,21.952,26.625,29.003,43.011c7.047,16.391,10.573,33.92,10.573,52.604
			v123.39h-34.414v-32.947c-1.646,1.646-3.438,3.455-5.411,5.415c-12.118,12.128-26.385,21.722-42.767,28.761
			c-16.393,7.042-33.92,10.568-52.599,10.568c-18.684,0-36.218-3.526-52.594-10.568c-16.393-7.039-30.729-16.718-43.021-29.009
			c-12.291-12.282-21.955-26.619-29.003-43.002C733.931,2027.026,730.422,2009.49,730.422,1990.813z M764.828,1990.813
			c0,13.761,2.621,26.789,7.863,39.08c5.237,12.291,12.455,23.028,21.629,32.195c9.176,9.183,19.913,16.387,32.199,21.624
			c12.285,5.251,25.31,7.87,39.08,7.87c13.764,0,26.792-2.619,39.084-7.87c12.29-5.237,23.011-12.441,32.192-21.624
			c9.168-9.167,16.376-19.827,21.626-31.954c4.589-11.136,7.211-22.772,7.863-34.9v-4.421c0-13.773-2.626-26.795-7.863-39.087
			c-5.25-12.297-12.458-23.021-21.626-32.195c-9.182-9.168-19.908-16.387-32.192-21.63c-12.29-5.231-25.32-7.863-39.084-7.863
			c-13.771,0-26.794,2.632-39.08,7.863c-12.292,5.243-23.023,12.461-32.199,21.63c-9.174,9.175-16.392,19.905-21.629,32.195
			C767.45,1964.018,764.828,1977.04,764.828,1990.813z"/>
		<path fill="#FFFFFF" d="M1036.664,1868.408h35.385v22.12c7.879-10.488,18.596-18.925,32.205-25.32
			c13.594-6.386,27.766-9.586,42.513-9.586c19.329,0,36.78,4.67,52.349,14.015c15.572,9.344,28.436,21.714,38.599,37.112
			c9.834-15.399,23.183-27.769,40.058-37.112c16.87-9.345,35.148-14.015,54.813-14.015c15.059,0,29.331,2.945,42.769,8.843
			c13.44,5.911,25.146,13.851,35.149,23.843c9.993,9.997,17.855,21.8,23.602,35.396c5.714,13.604,8.593,27.944,8.593,43.011
			l0.491,147.482h-35.396l-0.497-147.482c0-10.476-1.957-20.317-5.891-29.485c-3.932-9.176-9.259-17.208-15.98-24.099
			c-6.726-6.878-14.59-12.285-23.596-16.223c-9.018-3.932-18.775-5.898-29.243-5.898c-10.495,0-20.238,1.967-29.259,5.898
			c-9.018,3.937-16.945,9.338-23.83,16.223c-6.882,6.882-12.289,14.915-16.223,24.099c-3.938,9.175-5.909,19.01-5.909,29.485
			l0.496,147.482h-35.396l-0.496-147.482c-0.659-10.808-3.024-20.894-7.113-30.23c-4.102-9.337-9.509-17.365-16.221-24.099
			c-6.734-6.706-14.513-11.957-23.355-15.726c-8.844-3.768-18.352-5.655-28.52-5.655c-10.169,0-19.743,2.13-28.76,6.394
			c-9.02,4.258-16.955,9.908-23.836,16.955c-6.882,7.053-12.289,15.079-16.223,24.092c-3.933,9.019-5.906,18.435-5.906,28.265
			l0.496,147.481h-35.398L1036.664,1868.408z"/>
		<path fill="#FFFFFF" d="M1474.17,1790.732c0-5.897,1.959-10.814,5.896-14.745c3.931-3.932,8.85-5.898,14.745-5.898
			c5.905,0,10.81,1.967,14.74,5.898c3.95,3.932,5.909,8.849,5.909,14.745c0,5.904-1.957,10.815-5.909,14.753
			c-3.931,3.932-8.835,5.897-14.74,5.897c-5.896,0-10.814-1.966-14.745-5.897C1476.129,1801.548,1474.17,1796.636,1474.17,1790.732z
			 M1477.115,1868.408h34.416v245.789h-34.416V1868.408z"/>
		<path fill="#FFFFFF" d="M1540.527,1990.813c0-18.685,3.506-36.214,10.565-52.604c7.055-16.379,16.721-30.72,29.011-43.011
			c12.289-12.29,26.611-21.949,43.01-29.003c16.38-7.053,33.922-10.572,52.599-10.572c18.679,0,36.206,3.521,52.598,10.572
			c16.387,7.054,30.733,16.713,43.012,29.003c12.291,12.291,21.956,26.625,29.009,43.011c7.041,16.391,10.567,33.92,10.567,52.604
			v123.39h-34.41v-32.947c-1.64,1.646-3.455,3.455-5.415,5.415c-12.12,12.128-26.376,21.722-42.763,28.761
			c-16.392,7.042-33.919,10.568-52.598,10.568c-18.677,0-36.219-3.526-52.599-10.568c-16.393-7.039-30.721-16.718-43.01-29.009
			c-12.297-12.282-21.955-26.619-29.018-43.002C1544.04,2027.026,1540.527,2009.49,1540.527,1990.813z M1574.943,1990.813
			c0,13.761,2.612,26.789,7.862,39.08c5.238,12.291,12.448,23.028,21.631,32.195c9.169,9.183,19.904,16.387,32.195,21.624
			c12.291,5.251,25.308,7.87,39.08,7.87c13.768,0,26.788-2.619,39.079-7.87c12.291-5.237,23.027-12.441,32.197-21.624
			c9.175-9.167,16.385-19.827,21.623-31.954c4.604-11.136,7.203-22.772,7.876-34.9v-4.421c0-13.773-2.645-26.795-7.876-39.087
			c-5.238-12.297-12.448-23.021-21.623-32.195c-9.17-9.168-19.918-16.387-32.197-21.63c-12.29-5.231-25.312-7.863-39.079-7.863
			c-13.772,0-26.789,2.632-39.08,7.863c-12.297,5.243-23.026,12.461-32.195,21.63c-9.183,9.175-16.393,19.905-21.631,32.195
			C1577.549,1964.018,1574.943,1977.04,1574.943,1990.813z"/>
		<path fill="#FFFFFF" d="M2031.608,1966.715c0-10.476-1.959-20.317-5.892-29.485c-3.932-9.176-9.339-17.208-16.221-24.099
			c-6.885-6.878-14.918-12.285-24.106-16.224c-9.169-3.931-18.84-5.897-29.003-5.897c-10.161,0-19.826,2.13-29.009,6.395
			c-9.169,4.258-17.195,9.906-24.086,16.959c-6.882,7.047-12.367,15.159-16.469,24.332c-4.101,9.177-6.14,18.517-6.14,28.013
			l0.497,147.481h-34.913v-245.782h34.409v22.61c3.259-5.239,7.688-10.078,13.264-14.5c5.565-4.426,11.717-8.195,18.43-11.312
			c6.721-3.108,13.846-5.478,21.396-7.118c7.537-1.639,15.06-2.462,22.609-2.462c15.081,0,29.332,2.945,42.778,8.843
			c13.438,5.911,25.155,13.853,35.146,23.843c9.993,9.999,17.946,21.8,23.843,35.396c5.891,13.603,8.837,27.944,8.837,43.011
			l0.496,147.482h-35.396L2031.608,1966.715z"/>
	</g>
</g>
</svg>
