<?xml version="1.0" encoding="utf-8"?>
<!-- Generator: Adobe Illustrator 16.0.0, SVG Export Plug-In . SVG Version: 6.00 Build 0)  -->
<!DOCTYPE svg PUBLIC "-//W3C//DTD SVG 1.1//EN" "http://www.w3.org/Graphics/SVG/1.1/DTD/svg11.dtd">
<svg version="1.1" id="Layer_1" xmlns="http://www.w3.org/2000/svg" xmlns:xlink="http://www.w3.org/1999/xlink" x="0px" y="0px"
	 width="212.599px" height="212.599px" viewBox="0 0 212.599 212.599" enable-background="new 0 0 212.599 212.599"
	 xml:space="preserve">
<g>
	<g>
		<path fill="#FFFFFF" d="M34.303,210.149v-26.258h3.268v26.258H34.303z"/>
		<path fill="#FFFFFF" d="M62.293,210.149l-15.314-20.943v20.943h-3.268v-26.258h3.347l15.117,20.512v-20.512h3.268v26.258H62.293z"
			/>
		<path fill="#FFFFFF" d="M70.007,206.45l1.93-2.48c1.732,1.928,4.566,3.74,8.268,3.74c4.684,0,6.18-2.52,6.18-4.527
			c0-6.771-15.551-3.031-15.551-12.402c0-4.33,3.859-7.281,9.016-7.281c4.016,0,7.127,1.338,9.33,3.66l-1.969,2.402
			c-1.967-2.166-4.723-3.15-7.598-3.15c-3.148,0-5.393,1.693-5.393,4.174c0,5.904,15.551,2.52,15.551,12.322
			c0,3.818-2.6,7.715-9.686,7.715C75.519,210.622,72.173,208.89,70.007,206.45z"/>
		<path fill="#FFFFFF" d="M94.649,210.149v-26.258h3.268v26.258H94.649z"/>
		<path fill="#FFFFFF" d="M102.995,197.04c0-8.148,6.023-13.582,13.502-13.582c4.646,0,7.875,2.049,10.197,4.922l-2.6,1.613
			c-1.652-2.125-4.447-3.621-7.598-3.621c-5.746,0-10.117,4.408-10.117,10.668c0,6.221,4.371,10.709,10.117,10.709
			c3.15,0,5.748-1.535,7.047-2.834v-5.355h-9.014v-2.912h12.281v9.486c-2.439,2.717-6.023,4.527-10.314,4.527
			C109.019,210.661,102.995,205.19,102.995,197.04z"/>
		<path fill="#FFFFFF" d="M150.745,210.149v-12.045h-15.354v12.045h-3.268v-26.258h3.268v11.299h15.354v-11.299h3.268v26.258
			H150.745z"/>
		<path fill="#FFFFFF" d="M166.647,210.149v-23.344h-8.307v-2.914h19.92v2.914h-8.346v23.344H166.647z"/>
	</g>
	<path fill="#FFFFFF" d="M174.571,40.198L110.032,2.937c-2.305-1.332-5.148-1.332-7.453,0l-64.54,37.262
		c-2.307,1.328-3.727,3.793-3.727,6.455v74.523c0,2.666,1.42,5.127,3.727,6.457l64.54,37.262c2.305,1.332,5.148,1.332,7.453,0
		l64.539-37.262c2.305-1.33,3.725-3.791,3.725-6.457V46.653C178.296,43.991,176.876,41.526,174.571,40.198z M160.456,99.339
		c0,4.418-3.594,8.012-8.012,8.012h-34.383c4.418,0,8.012-3.594,8.012-8.012V74.728c0-1.572-1.143-2.576-3.252-3.875l-16.818-10.371
		l-5.28,3.256l-8.905-5.492c-0.744-0.459-1.84-0.721-3.004-0.721c-1.166,0-2.262,0.262-3.006,0.721L57.816,75.507
		c-0.193,0.119-0.365,0.232-0.512,0.334v23.498c0,1.359,1.105,2.467,2.467,2.467h26.765c-0.253-0.777-0.393-1.605-0.393-2.467
		V74.661c0-1.391,0.883-2.477,3.148-3.875l11.432-7.049l0,0l3.736-2.304l-3.736,2.304l19.188,11.834
		c0.234,0.145,0.441,0.279,0.617,0.4v23.367c0,1.359-1.105,2.467-2.467,2.467H86.536c0.927,2.854,3.415,5.003,6.452,5.45
		c-0.002,0-0.003,0-0.005,0c0.002,0,0.003,0,0.005,0c0.382,0.056,0.77,0.095,1.167,0.095H59.771c-4.418,0-8.012-3.594-8.012-8.012
		V74.661c0-1.391,0.883-2.477,3.146-3.873l27.993-17.262c1.617-0.998,3.717-1.547,5.914-1.547c2.195,0,4.297,0.549,5.914,1.547
		l11.275,6.955l11.279-6.955c1.617-0.998,3.719-1.547,5.914-1.547c2.197,0,4.297,0.549,5.916,1.547l28.092,17.326
		c2.109,1.299,3.252,2.303,3.252,3.875V99.339z M89.329,105.719c-0.613-0.466-1.157-1.016-1.614-1.635
		C88.173,104.703,88.716,105.253,89.329,105.719z"/>
</g>
</svg>
