<?xml version="1.0" encoding="utf-8"?>
<!-- Generator: Adobe Illustrator 16.0.0, SVG Export Plug-In . SVG Version: 6.00 Build 0)  -->
<!DOCTYPE svg PUBLIC "-//W3C//DTD SVG 1.1//EN" "http://www.w3.org/Graphics/SVG/1.1/DTD/svg11.dtd">
<svg version="1.1" id="Layer_1" xmlns="http://www.w3.org/2000/svg" xmlns:xlink="http://www.w3.org/1999/xlink" x="0px" y="0px"
	 width="255.118px" height="255.118px" viewBox="0 0 255.118 255.118" enable-background="new 0 0 255.118 255.118"
	 xml:space="preserve">
<g>
	<g>
		<path fill="#F3956B" d="M26.142,202.262v-36.993h4.604v36.993H26.142z"/>
		<path fill="#F3956B" d="M65.577,202.262l-21.574-29.505v29.505h-4.604v-36.993h4.715l21.297,28.896v-28.896h4.603v36.993H65.577z"
			/>
		<path fill="#F3956B" d="M76.45,197.047l2.717-3.494c2.44,2.719,6.435,5.271,11.646,5.271c6.601,0,8.708-3.55,8.708-6.379
			c0-9.54-21.907-4.27-21.907-17.47c0-6.101,5.436-10.262,12.701-10.262c5.656,0,10.037,1.887,13.145,5.158l-2.774,3.383
			c-2.773-3.049-6.655-4.436-10.703-4.436c-4.437,0-7.599,2.385-7.599,5.878c0,8.319,21.907,3.55,21.907,17.358
			c0,5.382-3.66,10.871-13.644,10.871C84.214,202.926,79.5,200.485,76.45,197.047z"/>
		<path fill="#F3956B" d="M111.169,202.262v-36.993h4.604v36.993H111.169z"/>
		<path fill="#F3956B" d="M122.928,183.791c0-11.479,8.486-19.131,19.023-19.131c6.545,0,11.092,2.882,14.365,6.932l-3.661,2.273
			c-2.329-2.996-6.267-5.103-10.704-5.103c-8.097,0-14.254,6.212-14.254,15.028c0,8.765,6.157,15.088,14.254,15.088
			c4.438,0,8.099-2.165,9.928-3.994v-7.544h-12.7v-4.103h17.303v13.367c-3.438,3.824-8.484,6.376-14.53,6.376
			C131.415,202.981,122.928,195.273,122.928,183.791z"/>
		<path fill="#F3956B" d="M190.206,202.262V185.29h-21.63v16.972h-4.604v-36.993h4.604v15.918h21.63v-15.918h4.604v36.993H190.206z"
			/>
		<path fill="#F3956B" d="M212.615,202.262v-32.888h-11.702v-4.105h28.062v4.105h-11.758v32.888H212.615z"/>
	</g>
	<g>
		<path fill="#F3956B" d="M100.374,121.143c-0.233-0.466-0.438-0.948-0.603-1.451C99.935,120.194,100.14,120.677,100.374,121.143z"
			/>
		<path fill="#F3956B" d="M101.366,122.762c0.618,0.834,1.35,1.575,2.176,2.203C102.715,124.337,101.983,123.596,101.366,122.762z"
			/>
		<path fill="#F3956B" d="M142.483,119.663c1.842,0,3.343-1.499,3.343-3.344V84.652c-0.238-0.163-0.519-0.347-0.837-0.543
			l-26.004-16.037l-15.492,9.554c-3.069,1.893-4.265,3.364-4.265,5.251v33.442c0,1.168,0.189,2.29,0.532,3.344H142.483z"/>
		<path fill="#F3956B" d="M101.252,122.611c-0.301-0.421-0.572-0.865-0.812-1.326C100.68,121.748,100.952,122.188,101.252,122.611z"
			/>
		<path fill="#F3956B" d="M108.179,127c-0.502-0.09-0.993-0.209-1.468-0.365C107.186,126.791,107.677,126.91,108.179,127z"/>
		<path fill="#F3956B" d="M106.49,126.553c-0.448-0.156-0.884-0.342-1.303-0.556C105.606,126.211,106.042,126.396,106.49,126.553z"
			/>
		<path fill="#F3956B" d="M110.084,127.177c-0.54,0-1.067-0.053-1.588-0.129C109.017,127.124,109.543,127.177,110.084,127.177z"/>
		<path fill="#F3956B" d="M195.529,77.713l-38.071-23.48c-2.193-1.351-5.039-2.096-8.017-2.096c-2.975,0-5.823,0.745-8.015,2.096
			l-15.284,9.426l22.789,14.055c2.859,1.762,4.409,3.121,4.409,5.252v33.354c0,5.987-4.872,10.857-10.857,10.857h46.596
			c5.987,0,10.857-4.87,10.857-10.857V82.965C199.936,80.834,198.387,79.475,195.529,77.713z"/>
		<path fill="#F3956B" d="M105.028,125.92c-0.447-0.235-0.874-0.508-1.282-0.805C104.154,125.412,104.581,125.685,105.028,125.92z"
			/>
	</g>
	<path fill="#F3956B" d="M99.76,119.663H63.488c-1.844,0-3.344-1.499-3.344-3.344V84.477c0.2-0.141,0.433-0.294,0.692-0.456
		l37.936-23.393c1.009-0.621,2.493-0.978,4.073-0.978c1.578,0,3.062,0.356,4.069,0.978l12.07,7.444l7.157-4.414l-15.282-9.426
		c-2.192-1.351-5.041-2.096-8.015-2.096c-2.978,0-5.823,0.745-8.018,2.096L56.894,77.626c-3.069,1.893-4.263,3.365-4.263,5.251
		v33.442c0,5.987,4.87,10.857,10.856,10.857h46.597C105.265,127.177,101.174,124.017,99.76,119.663z"/>
</g>
</svg>
