<?xml version="1.0" encoding="utf-8"?>
<!-- Generator: Adobe Illustrator 15.0.0, SVG Export Plug-In . SVG Version: 6.00 Build 0)  -->
<!DOCTYPE svg PUBLIC "-//W3C//DTD SVG 1.1//EN" "http://www.w3.org/Graphics/SVG/1.1/DTD/svg11.dtd">
<svg version="1.1" id="Layer_1" xmlns="http://www.w3.org/2000/svg" xmlns:xlink="http://www.w3.org/1999/xlink" x="0px" y="0px"
	 width="212.598px" height="212.598px" viewBox="0 0 212.598 212.598" enable-background="new 0 0 212.598 212.598"
	 xml:space="preserve">
<g>
	<g>
		<g>
			<polygon fill="#28A4D5" points="91.764,46.068 68.254,46.068 68.254,57.787 68.254,81.295 79.974,93.015 79.974,57.787 
				103.484,57.787 			"/>
			<polygon fill="#28A4D5" points="115.202,46.068 103.484,57.787 126.993,57.787 126.993,93.015 138.709,81.295 138.709,57.787 
				138.709,46.068 			"/>
			<polygon fill="#28A4D5" points="126.993,93.015 126.993,128.242 103.484,128.242 115.202,139.963 138.709,139.963 
				138.709,128.242 138.709,104.736 			"/>
			<polygon fill="#28A4D5" points="79.974,128.242 79.974,93.015 68.254,104.736 68.254,128.242 68.254,139.963 91.764,139.963 
				103.484,128.242 			"/>
		</g>
		<g>
			<polygon fill="#2B2961" points="68.254,116.524 68.254,93.015 56.534,104.736 56.534,128.242 68.254,128.242 91.764,128.242 
				103.484,116.524 			"/>
			<polygon fill="#2B2961" points="91.764,57.787 68.254,57.787 56.534,57.787 56.534,81.295 68.254,93.015 68.254,69.507 
				103.484,69.507 			"/>
			<polygon fill="#2B2961" points="138.709,57.787 115.202,57.787 103.484,69.507 138.709,69.507 138.709,93.015 150.432,81.295 
				150.432,57.787 			"/>
			<polygon fill="#2B2961" points="138.709,93.015 138.709,116.524 103.484,116.524 115.202,128.242 138.709,128.242 
				150.432,128.242 150.432,104.736 			"/>
		</g>
	</g>
	<g>
		<path fill="#292A60" d="M4.844,175.219h7.355v26.588h13.625v6.791H4.844V175.219z"/>
		<path fill="#292A60" d="M29.783,175.219h7.354v33.379h-7.354V175.219z"/>
		<path fill="#292A60" d="M40.531,175.219h8.392l8.25,21.873h0.094l8.394-21.873h7.873l-13.767,33.379h-5.894L40.531,175.219z"/>
		<path fill="#292A60" d="M77.306,175.219h22.676v6.787H84.659v6.226h14.474v6.789H84.659v6.786h16.171v6.791H77.306V175.219z"/>
		<path fill="#2AA4D4" d="M107.006,175.219h22.393v6.787H114.36v6.791h13.908v6.787H114.36v13.014h-7.354V175.219z"/>
		<path fill="#2AA4D4" d="M143.071,175.219h6.085l14.518,33.379h-8.295l-2.877-7.071h-12.965l-2.781,7.071h-8.109L143.071,175.219z
			 M145.899,184.93l-4.053,10.373H150L145.899,184.93z"/>
		<path fill="#2AA4D4" d="M166.928,175.219h7.354v33.379h-7.354V175.219z"/>
		<path fill="#2AA4D4" d="M180.975,175.219h12.918c1.697,0,3.31,0.164,4.834,0.494c1.521,0.33,2.859,0.881,4.006,1.65
			c1.148,0.77,2.06,1.807,2.736,3.11c0.674,1.306,1.012,2.933,1.012,4.88c0,2.356-0.612,4.36-1.838,6.012
			c-1.227,1.649-3.018,2.694-5.375,3.135l8.486,14.098h-8.816l-6.979-13.344h-3.629v13.344h-7.355V175.219z M188.331,189.032h4.336
			c0.662,0,1.358-0.023,2.098-0.07c0.74-0.047,1.408-0.188,2.004-0.424c0.599-0.236,1.092-0.605,1.486-1.109
			c0.393-0.5,0.59-1.207,0.59-2.121c0-0.848-0.174-1.522-0.52-2.024c-0.347-0.504-0.787-0.89-1.32-1.156
			c-0.533-0.266-1.146-0.449-1.838-0.543c-0.693-0.094-1.367-0.141-2.027-0.141h-4.809V189.032z"/>
	</g>
</g>
</svg>
