<?xml version="1.0" encoding="utf-8"?>
<!-- Generator: Adobe Illustrator 15.0.0, SVG Export Plug-In . SVG Version: 6.00 Build 0)  -->
<!DOCTYPE svg PUBLIC "-//W3C//DTD SVG 1.1//EN" "http://www.w3.org/Graphics/SVG/1.1/DTD/svg11.dtd">
<svg version="1.1" id="Layer_1" xmlns="http://www.w3.org/2000/svg" xmlns:xlink="http://www.w3.org/1999/xlink" x="0px" y="0px"
	 width="212.598px" height="212.598px" viewBox="0 0 212.598 212.598" enable-background="new 0 0 212.598 212.598"
	 xml:space="preserve">
<g>
	<g>
		<g>
			<polygon fill="#FFFFFF" points="91.764,43.068 68.254,43.068 68.254,54.787 68.254,78.295 79.974,90.015 79.974,54.787 
				103.484,54.787 			"/>
			<polygon fill="#FFFFFF" points="115.202,43.068 103.484,54.787 126.993,54.787 126.993,90.015 138.709,78.295 138.709,54.787 
				138.709,43.068 			"/>
			<polygon fill="#FFFFFF" points="126.993,90.015 126.993,125.242 103.484,125.242 115.202,136.963 138.709,136.963 
				138.709,125.242 138.709,101.736 			"/>
			<polygon fill="#FFFFFF" points="79.974,125.242 79.974,90.015 68.254,101.736 68.254,125.242 68.254,136.963 91.764,136.963 
				103.484,125.242 			"/>
		</g>
		<g>
			<polygon fill="#FFFFFF" points="68.254,113.524 68.254,90.015 56.534,101.736 56.534,125.242 68.254,125.242 91.764,125.242 
				103.484,113.524 			"/>
			<polygon fill="#FFFFFF" points="91.764,54.787 68.254,54.787 56.534,54.787 56.534,78.295 68.254,90.015 68.254,66.507 
				103.484,66.507 			"/>
			<polygon fill="#FFFFFF" points="138.709,54.787 115.202,54.787 103.484,66.507 138.709,66.507 138.709,90.015 150.432,78.295 
				150.432,54.787 			"/>
			<polygon fill="#FFFFFF" points="138.709,90.015 138.709,113.524 103.484,113.524 115.202,125.242 138.709,125.242 
				150.432,125.242 150.432,101.736 			"/>
		</g>
	</g>
	<g>
		<path fill="#FFFFFF" d="M4.844,172.219h7.355v26.588h13.625v6.791H4.844V172.219z"/>
		<path fill="#FFFFFF" d="M29.783,172.219h7.354v33.379h-7.354V172.219z"/>
		<path fill="#FFFFFF" d="M40.531,172.219h8.392l8.25,21.873h0.094l8.394-21.873h7.873l-13.767,33.379h-5.894L40.531,172.219z"/>
		<path fill="#FFFFFF" d="M77.306,172.219h22.676v6.787H84.659v6.226h14.474v6.789H84.659v6.786h16.171v6.791H77.306V172.219z"/>
		<path fill="#FFFFFF" d="M107.006,172.219h22.393v6.787H114.36v6.791h13.908v6.787H114.36v13.014h-7.354V172.219z"/>
		<path fill="#FFFFFF" d="M143.071,172.219h6.085l14.518,33.379h-8.295l-2.877-7.071h-12.965l-2.781,7.071h-8.109L143.071,172.219z
			 M145.899,181.93l-4.053,10.373H150L145.899,181.93z"/>
		<path fill="#FFFFFF" d="M166.928,172.219h7.354v33.379h-7.354V172.219z"/>
		<path fill="#FFFFFF" d="M180.975,172.219h12.918c1.697,0,3.31,0.164,4.834,0.494c1.521,0.33,2.859,0.881,4.006,1.65
			c1.148,0.77,2.06,1.807,2.736,3.11c0.674,1.306,1.012,2.933,1.012,4.88c0,2.356-0.612,4.36-1.838,6.012
			c-1.227,1.649-3.018,2.694-5.375,3.135l8.486,14.098h-8.816l-6.979-13.344h-3.629v13.344h-7.355V172.219z M188.331,186.032h4.336
			c0.662,0,1.358-0.023,2.098-0.07c0.74-0.047,1.408-0.188,2.004-0.424c0.599-0.236,1.092-0.605,1.486-1.109
			c0.393-0.5,0.59-1.207,0.59-2.121c0-0.848-0.174-1.522-0.52-2.024c-0.347-0.504-0.787-0.89-1.32-1.156
			c-0.533-0.266-1.146-0.449-1.838-0.543c-0.693-0.094-1.367-0.141-2.027-0.141h-4.809V186.032z"/>
	</g>
</g>
</svg>
