<?xml version="1.0" encoding="utf-8"?>
<!-- Generator: Adobe Illustrator 16.0.0, SVG Export Plug-In . SVG Version: 6.00 Build 0)  -->
<!DOCTYPE svg PUBLIC "-//W3C//DTD SVG 1.1//EN" "http://www.w3.org/Graphics/SVG/1.1/DTD/svg11.dtd">
<svg version="1.1" id="Layer_1" xmlns="http://www.w3.org/2000/svg" xmlns:xlink="http://www.w3.org/1999/xlink" x="0px" y="0px"
	 width="170.079px" height="170.079px" viewBox="0 0 170.079 170.079" enable-background="new 0 0 170.079 170.079"
	 xml:space="preserve">
<g>
	<path fill="none" stroke="#E1DE07" stroke-width="5" stroke-miterlimit="10" d="M55.536,119.285c0,2.701-2.189,4.891-4.891,4.891
		l0,0c-2.7,0-4.89-2.189-4.89-4.891V50.794c0-2.701,2.189-4.891,4.89-4.891l0,0c2.701,0,4.891,2.189,4.891,4.891V119.285z"/>
	<g>
		<path fill="none" stroke="#FFFFFF" stroke-width="10" stroke-miterlimit="10" d="M48.438,77.766
			c-3.816-1.217-5.921-5.298-4.701-9.113c1.217-3.817,5.299-5.923,9.117-4.706c3.816,1.219,5.92,5.301,4.701,9.118
			C56.339,76.88,52.255,78.984,48.438,77.766z"/>
		<path fill="#E1DE07" d="M48.438,77.766c-3.816-1.217-5.921-5.298-4.701-9.113c1.217-3.817,5.299-5.923,9.117-4.706
			c3.816,1.219,5.92,5.301,4.701,9.118C56.339,76.88,52.255,78.984,48.438,77.766z"/>
	</g>
	<path fill="none" stroke="#E1DE07" stroke-width="5" stroke-miterlimit="10" d="M114.542,50.794c0-2.701,2.189-4.891,4.891-4.891
		l0,0c2.7,0,4.89,2.189,4.89,4.891v68.491c0,2.701-2.189,4.891-4.89,4.891l0,0c-2.701,0-4.891-2.189-4.891-4.891V50.794z"/>
	<g>
		<path fill="none" stroke="#FFFFFF" stroke-width="10" stroke-miterlimit="10" d="M121.64,92.312
			c3.816,1.217,5.921,5.299,4.701,9.113c-1.217,3.818-5.299,5.924-9.117,4.707c-3.817-1.219-5.92-5.301-4.701-9.119
			C113.74,93.199,117.824,91.094,121.64,92.312z"/>
		<path fill="#E1DE07" d="M121.64,92.312c3.816,1.217,5.921,5.299,4.701,9.113c-1.217,3.818-5.299,5.924-9.117,4.707
			c-3.817-1.219-5.92-5.301-4.701-9.119C113.74,93.199,117.824,91.094,121.64,92.312z"/>
	</g>
	<path fill="none" stroke="#E1DE07" stroke-width="5" stroke-miterlimit="10" d="M101.394,119.285c0,2.701-2.189,4.891-4.891,4.891
		l0,0c-2.701,0-4.89-2.189-4.89-4.891V50.794c0-2.701,2.188-4.891,4.89-4.891l0,0c2.701,0,4.891,2.189,4.891,4.891V119.285z"/>
	<g>
		<path fill="none" stroke="#FFFFFF" stroke-width="10" stroke-miterlimit="10" d="M94.296,77.766
			c-3.816-1.217-5.921-5.298-4.701-9.113c1.217-3.817,5.299-5.923,9.117-4.706c3.817,1.219,5.92,5.301,4.701,9.118
			C102.196,76.88,98.112,78.984,94.296,77.766z"/>
		<path fill="#E1DE07" d="M94.296,77.766c-3.816-1.217-5.921-5.298-4.701-9.113c1.217-3.817,5.299-5.923,9.117-4.706
			c3.817,1.219,5.92,5.301,4.701,9.118C102.196,76.88,98.112,78.984,94.296,77.766z"/>
	</g>
	<path fill="none" stroke="#E1DE07" stroke-width="5" stroke-miterlimit="10" d="M68.686,50.794c0-2.701,2.189-4.891,4.891-4.891
		l0,0c2.7,0,4.89,2.189,4.89,4.891v68.491c0,2.701-2.189,4.891-4.89,4.891l0,0c-2.701,0-4.891-2.189-4.891-4.891V50.794z"/>
	<g>
		<path fill="none" stroke="#FFFFFF" stroke-width="10" stroke-miterlimit="10" d="M75.783,92.312
			c3.816,1.217,5.921,5.299,4.701,9.113c-1.218,3.818-5.299,5.924-9.117,4.707c-3.817-1.219-5.92-5.301-4.701-9.119
			C67.883,93.199,71.967,91.094,75.783,92.312z"/>
		<path fill="#E1DE07" d="M75.783,92.312c3.816,1.217,5.921,5.299,4.701,9.113c-1.218,3.818-5.299,5.924-9.117,4.707
			c-3.817-1.219-5.92-5.301-4.701-9.119C67.883,93.199,71.967,91.094,75.783,92.312z"/>
	</g>
</g>
</svg>
