<?xml version="1.0" encoding="utf-8"?>
<!-- Generator: Adobe Illustrator 16.0.0, SVG Export Plug-In . SVG Version: 6.00 Build 0)  -->
<!DOCTYPE svg PUBLIC "-//W3C//DTD SVG 1.1//EN" "http://www.w3.org/Graphics/SVG/1.1/DTD/svg11.dtd">
<svg version="1.1" id="Layer_1" xmlns="http://www.w3.org/2000/svg" xmlns:xlink="http://www.w3.org/1999/xlink" x="0px" y="0px"
	 width="170.079px" height="170.079px" viewBox="0 0 170.079 170.079" enable-background="new 0 0 170.079 170.079"
	 xml:space="preserve">
<g>
	<circle fill="#E1DE07" cx="85.039" cy="117.103" r="7.255"/>
	<circle fill="#E1DE07" cx="51.278" cy="92.581" r="7.254"/>
	<path fill="#E1DE07" d="M116.591,99.489c-3.816-1.217-5.921-5.297-4.701-9.113c1.217-3.816,5.299-5.923,9.117-4.705
		c3.816,1.219,5.92,5.301,4.701,9.117C124.492,98.604,120.408,100.708,116.591,99.489z"/>
	<path fill="#E1DE07" d="M58.436,57.243c2.355,3.239,6.892,3.957,10.135,1.6c3.241-2.355,3.96-6.888,1.605-10.131
		c-2.354-3.241-6.891-3.961-10.132-1.604C56.802,49.462,56.082,53.998,58.436,57.243z"/>
	<polyline fill="none" stroke="#E1DE07" stroke-width="5" stroke-miterlimit="10" points="64.306,52.977 85.039,77.583 
		85.039,117.103 51.278,92.581 85.039,77.583 118.798,92.581 	"/>
	<circle fill="#E1DE07" stroke="#FFFFFF" stroke-width="5" stroke-miterlimit="10" cx="85.039" cy="77.583" r="14.05"/>
</g>
</svg>
